<svg xmlns="http://www.w3.org/2000/svg" width="2000" height="2000" style="width: 100%; height: 100%; transform: translate3d(0, 0, 0); content-visibility: visible;">
    <defs>
        <clipPath id="a"><path d="M0 0h2000v2000H0z" /></clipPath>
        <clipPath id="b"><path d="M0 0h2000v2000H0z" /></clipPath>
        <clipPath id="c"><path d="M0 0h2000v2000H0z" /></clipPath>
        <clipPath id="d"><path d="M0 0h2000v2000H0z" /></clipPath>
        <clipPath id="e"><path d="M0 0h2000v2000H0z" /></clipPath>
        <clipPath id="f"><path d="M0 0h2000v2000H0z" /></clipPath>
    </defs>
    <g clip-path="url(#a)">
        <g clip-path="url(#b)" style="display: block;" transform="translate(0 56)">
            <g style="display: block;">
                <path fill="#F2F2F2" d="M847.76 792.568c-83.433 72.656-66.473 450.648-66.473 450.648s195.56 198.475 422.065 6.695c35.17-106.278 1.024-380.069-61.522-449.58-62.546-69.513-210.636-80.418-294.07-7.763z" />
                <path
                    fill="none"
                    stroke="#3F2A53"
                    stroke-width="20"
                    d="M847.76 792.568c-83.433 72.656-66.473 450.648-66.473 450.648s195.56 198.475 422.065 6.695c35.17-106.278 1.024-380.069-61.522-449.58-62.546-69.513-210.636-80.418-294.07-7.763z"
                />
                <path fill="none" stroke="#3F2A53" stroke-linecap="round" stroke-width="20" d="M1210.55 1083.648s-41.235-153.487-90.7-212.602M783.086 1089.825s41.632-119.904 97.456-229.255" />
                <path
                    fill="#D3D3D3"
                    d="M972.957 738.458c-108.981 2.87-148.964 83.955-148.766 109.157 26.804 26.388 69.35-34.28 163.42-36.06 90.99-1.72 187.24 55.24 187.24 55.24s.997-.511-9.97-28.15c-10.967-27.637-82.943-103.056-191.924-100.187zM998.135 1095.26c-278.991 2.184-210.323 87.337-210.323 87.337s102.337 42.547 244.332 41.435c141.996-1.112 170.537-59.806 175.356-83.03 4.818-23.225-119.368-46.447-209.365-45.743z"
                />
            </g>
            <g style="display: block;">
                <path fill="#FCFCFC" d="M1504 1291.423v406.482c0 44.204-35.848 80.095-80 80.095H572c-44.152 0-80-35.89-80-80.095v-406.482c0-44.205 35.848-80.095 80-80.095h852c44.152 0 80 35.89 80 80.095z" />
                <path
                    fill="none"
                    stroke="#32153C"
                    stroke-width="20"
                    d="M506-203v406c0 44.152-35.848 80-80 80h-852c-44.152 0-80-35.848-80-80v-406c0-44.152 35.848-80 80-80h852c44.152 0 80 35.848 80 80z"
                    transform="matrix(1 0 0 1.00119 998 1494.664)"
                />
            </g>
            <g style="display: block;">
                <path fill="#BBC1BF" d="M1437 1213.33H563s-67 13.016-67 62.074-2 136.161-2 136.161h1006v-143.17s-19-55.065-63-55.065z" />
                <path fill="none" stroke="#32153C" stroke-width="20" d="M437 214h-874s-67 13-67 62-2 136-2 136H500V269s-19-55-63-55z" transform="matrix(1 0 0 1.00119 1000 999.076)" />
            </g>
            <g clip-path="url(#c)" style="display: block;">
                <g style="display: block;">
                    <path fill="#CFCFCF" d="M702.598 1746.859c-83.907 13.3-162.831-44.028-176.131-127.935-13.3-83.907 44.028-162.831 127.935-176.131 83.907-13.3 162.831 44.028 176.131 127.935 13.3 83.907-44.028 162.831-127.935 176.131z" />
                    <path
                        fill="none"
                        stroke="#32153C"
                        stroke-width="15.04215"
                        d="M702.598 1746.859c-83.907 13.3-162.831-44.028-176.131-127.935-13.3-83.907 44.028-162.831 127.935-176.131 83.907-13.3 162.831 44.028 176.131 127.935 13.3 83.907-44.028 162.831-127.935 176.131z"
                    />
                </g>
                <g style="display: block;">
                    <path fill="#61605E" d="M641.108 1480.678c62.221-20.233 129.168 13.858 149.402 76.08 20.233 62.221-13.858 129.168-76.08 149.401-62.22 20.234-129.168-13.857-149.401-76.079-20.234-62.221 13.857-129.168 76.079-149.402z" />
                    <path
                        fill="none"
                        stroke="#32153C"
                        stroke-width="15.1989"
                        d="M641.108 1480.678c62.221-20.233 129.168 13.858 149.402 76.08 20.233 62.221-13.858 129.168-76.08 149.401-62.22 20.234-129.168-13.857-149.401-76.079-20.234-62.221 13.857-129.168 76.079-149.402z"
                    />
                </g>
                <g style="display: block;">
                    <path fill="#D9CDD8" d="M684.971 1629.245c-20.176 3.198-39.154-10.586-42.352-30.762-3.198-20.176 10.587-39.154 30.763-42.352 20.176-3.198 39.154 10.587 42.352 30.763 3.198 20.175-10.587 39.153-30.763 42.351z" />
                    <path
                        fill="none"
                        stroke="#32153C"
                        stroke-width="15.21105"
                        d="M684.971 1629.245c-20.176 3.198-39.154-10.586-42.352-30.762-3.198-20.176 10.587-39.154 30.763-42.352 20.176-3.198 39.154 10.587 42.352 30.763 3.198 20.175-10.587 39.153-30.763 42.351z"
                    />
                </g>
                <path fill="#373737" d="M0-19c10.486 0 19 8.514 19 19S10.486 19 0 19s-19-8.514-19-19 8.514-19 19-19z" style="display: block;" transform="rotate(170.993 276.616 823.11) scale(1.04462)" />
                <path fill="none" stroke="#391F44" stroke-linecap="round" stroke-width="15" d="M-393.5 600.5s4 72.5 73.5 75" style="display: block;" transform="rotate(170.992 143.293 1135.312) scale(1.00281)" />
                <path fill="none" stroke="#391F44" stroke-linecap="round" stroke-width="15" d="M-393.5 600.5s4 72.5 73.5 75" style="display: block;" transform="rotate(-1.825 31542.443 -30281.359) scale(1.00281)" />
                <path fill="#2C1D32" d="M0-6.75A6.753 6.753 0 0 1 6.75 0 6.753 6.753 0 0 1 0 6.75 6.753 6.753 0 0 1-6.75 0 6.753 6.753 0 0 1 0-6.75z" style="display: block;" transform="rotate(-18.014 5129.905 -970.598) scale(1.01326)" />
                <path fill="#2C1D32" d="M0-6.75A6.753 6.753 0 0 1 6.75 0 6.753 6.753 0 0 1 0 6.75 6.753 6.753 0 0 1-6.75 0 6.753 6.753 0 0 1 0-6.75z" style="display: block;" transform="rotate(-18.014 5037.816 -1634.251) scale(1.01326)" />
                <path fill="#2C1D32" d="M0-6.75A6.753 6.753 0 0 1 6.75 0 6.753 6.753 0 0 1 0 6.75 6.753 6.753 0 0 1-6.75 0 6.753 6.753 0 0 1 0-6.75z" style="display: block;" transform="rotate(-18.014 5574.725 -1719.766) scale(1.01326)" />
                <path fill="#2C1D32" d="M0-6.75A6.753 6.753 0 0 1 6.75 0 6.753 6.753 0 0 1 0 6.75 6.753 6.753 0 0 1-6.75 0 6.753 6.753 0 0 1 0-6.75z" style="display: block;" transform="rotate(-18.014 5696.95 -1057.203) scale(1.01326)" />
            </g>
            <g clip-path="url(#d)" style="display: block;" transform="matrix(-1 0 0 1 2000 0)">
                <g style="display: block;">
                    <path fill="#CFCFCF" d="M702.598 1746.859c-83.907 13.3-162.831-44.028-176.131-127.935-13.3-83.907 44.028-162.831 127.935-176.131 83.907-13.3 162.831 44.028 176.131 127.935 13.3 83.907-44.028 162.831-127.935 176.131z" />
                    <path
                        fill="none"
                        stroke="#32153C"
                        stroke-width="15.04215"
                        d="M702.598 1746.859c-83.907 13.3-162.831-44.028-176.131-127.935-13.3-83.907 44.028-162.831 127.935-176.131 83.907-13.3 162.831 44.028 176.131 127.935 13.3 83.907-44.028 162.831-127.935 176.131z"
                    />
                </g>
                <g style="display: block;">
                    <path fill="#61605E" d="M641.108 1480.678c62.221-20.233 129.168 13.858 149.402 76.08 20.233 62.221-13.858 129.168-76.08 149.401-62.22 20.234-129.168-13.857-149.401-76.079-20.234-62.221 13.857-129.168 76.079-149.402z" />
                    <path
                        fill="none"
                        stroke="#32153C"
                        stroke-width="15.1989"
                        d="M641.108 1480.678c62.221-20.233 129.168 13.858 149.402 76.08 20.233 62.221-13.858 129.168-76.08 149.401-62.22 20.234-129.168-13.857-149.401-76.079-20.234-62.221 13.857-129.168 76.079-149.402z"
                    />
                </g>
                <g style="display: block;">
                    <path fill="#D9CDD8" d="M684.971 1629.245c-20.176 3.198-39.154-10.586-42.352-30.762-3.198-20.176 10.587-39.154 30.763-42.352 20.176-3.198 39.154 10.587 42.352 30.763 3.198 20.175-10.587 39.153-30.763 42.351z" />
                    <path
                        fill="none"
                        stroke="#32153C"
                        stroke-width="15.21105"
                        d="M684.971 1629.245c-20.176 3.198-39.154-10.586-42.352-30.762-3.198-20.176 10.587-39.154 30.763-42.352 20.176-3.198 39.154 10.587 42.352 30.763 3.198 20.175-10.587 39.153-30.763 42.351z"
                    />
                </g>
                <path fill="#373737" d="M0-19c10.486 0 19 8.514 19 19S10.486 19 0 19s-19-8.514-19-19 8.514-19 19-19z" style="display: block;" transform="rotate(170.993 276.616 823.11) scale(1.04462)" />
                <path fill="none" stroke="#391F44" stroke-linecap="round" stroke-width="15" d="M-393.5 600.5s4 72.5 73.5 75" style="display: block;" transform="rotate(170.992 143.293 1135.312) scale(1.00281)" />
                <path fill="none" stroke="#391F44" stroke-linecap="round" stroke-width="15" d="M-393.5 600.5s4 72.5 73.5 75" style="display: block;" transform="rotate(-1.825 31542.443 -30281.359) scale(1.00281)" />
                <path fill="#2C1D32" d="M0-6.75A6.753 6.753 0 0 1 6.75 0 6.753 6.753 0 0 1 0 6.75 6.753 6.753 0 0 1-6.75 0 6.753 6.753 0 0 1 0-6.75z" style="display: block;" transform="rotate(-18.014 5129.905 -970.598) scale(1.01326)" />
                <path fill="#2C1D32" d="M0-6.75A6.753 6.753 0 0 1 6.75 0 6.753 6.753 0 0 1 0 6.75 6.753 6.753 0 0 1-6.75 0 6.753 6.753 0 0 1 0-6.75z" style="display: block;" transform="rotate(-18.014 5037.816 -1634.251) scale(1.01326)" />
                <path fill="#2C1D32" d="M0-6.75A6.753 6.753 0 0 1 6.75 0 6.753 6.753 0 0 1 0 6.75 6.753 6.753 0 0 1-6.75 0 6.753 6.753 0 0 1 0-6.75z" style="display: block;" transform="rotate(-18.014 5574.725 -1719.766) scale(1.01326)" />
                <path fill="#2C1D32" d="M0-6.75A6.753 6.753 0 0 1 6.75 0 6.753 6.753 0 0 1 0 6.75 6.753 6.753 0 0 1-6.75 0 6.753 6.753 0 0 1 0-6.75z" style="display: block;" transform="rotate(-18.014 5696.95 -1057.203) scale(1.01326)" />
            </g>
            <g style="display: block;">
                <path fill="#E1E5E1" d="M1146 1411.565V1778H856v-366.435h290z" />
                <path fill="none" stroke="#391F44" stroke-width="15" d="M117-183v366h-234v-366h234z" transform="matrix(1.23932 0 0 1.00119 1001 1594.783)" />
            </g>
            <g style="display: block;">
                <path fill="#FFF" d="M1116 1555.326v98c0 12.694-10.306 23-23 23H932c-12.694 0-23-10.306-23-23v-98c0-12.694 10.306-23 23-23h161c12.694 0 23 10.306 23 23z" />
                <path fill="none" stroke="#391F44" stroke-width="10" d="M1116 1555.326v98c0 12.694-10.306 23-23 23H932c-12.694 0-23-10.306-23-23v-98c0-12.694 10.306-23 23-23h161c12.694 0 23 10.306 23 23z" />
            </g>
            <path fill="#B1B1B1" d="m111.094 643.125-197.032.125-.156 15.5S-82.5 672-72 672H96.875s14.344-2.75 14.344-18c0-8.625-.125-10.875-.125-10.875z" style="display: block;" transform="translate(1000 999.326)" />
            <g style="display: block;"><path fill="none" stroke="#391F44" stroke-width="10" d="M1076 1536.326v83.5-83.5zM1115 1620.326H911.5 1115zM945.5 1534.326v86-86z" /></g>
            <path fill="#391F44" d="M0-11.25c6.209 0 11.25 5.041 11.25 11.25S6.209 11.25 0 11.25-11.25 6.209-11.25 0-6.209-11.25 0-11.25z" style="display: block;" transform="translate(978.75 1573.576)" />
            <path fill="#391F44" d="M0-11.25c6.209 0 11.25 5.041 11.25 11.25S6.209 11.25 0 11.25-11.25 6.209-11.25 0-6.209-11.25 0-11.25z" style="display: block;" transform="translate(1044.75 1573.576)" />
            <path fill="#391F44" d="M11-10v20h-22v-20h22z" style="display: block;" transform="matrix(1.42 0 0 1 1011.902 1573.326)" />
            <g style="display: block;">
                <path fill="#E1E5E1" d="M949 1712.5v20c0 11.314-9.186 20.5-20.5 20.5s-20.5-9.186-20.5-20.5v-20c0-11.314 9.186-20.5 20.5-20.5s20.5 9.186 20.5 20.5z" />
                <path fill="none" stroke="#391F44" stroke-width="10" d="M949 1712.5v20c0 11.314-9.186 20.5-20.5 20.5s-20.5-9.186-20.5-20.5v-20c0-11.314 9.186-20.5 20.5-20.5s20.5 9.186 20.5 20.5z" />
            </g>
            <g style="display: block;">
                <path fill="#E08EED" d="M1004 1714.221v16.558c0 9.366-9.186 16.971-20.5 16.971s-20.5-7.605-20.5-16.971v-16.558c0-9.366 9.186-16.971 20.5-16.971s20.5 7.605 20.5 16.971z" />
                <path fill="none" stroke="#391F44" stroke-width="10" d="M20.5-10v20c0 11.314-9.186 20.5-20.5 20.5S-20.5 21.314-20.5 10v-20c0-11.314 9.186-20.5 20.5-20.5S20.5-21.314 20.5-10z" transform="matrix(1 0 0 .82787 983.5 1722.5)" />
            </g>
            <g style="display: block;">
                <path fill="#E1E5E1" d="M1059 1712.5v20c0 11.314-9.186 20.5-20.5 20.5s-20.5-9.186-20.5-20.5v-20c0-11.314 9.186-20.5 20.5-20.5s20.5 9.186 20.5 20.5z" />
                <path fill="none" stroke="#391F44" stroke-width="10" d="M1059 1712.5v20c0 11.314-9.186 20.5-20.5 20.5s-20.5-9.186-20.5-20.5v-20c0-11.314 9.186-20.5 20.5-20.5s20.5 9.186 20.5 20.5z" />
            </g>
            <g style="display: block;">
                <path fill="#E1E5E1" d="M1115 1712.5v20c0 11.314-9.186 20.5-20.5 20.5s-20.5-9.186-20.5-20.5v-20c0-11.314 9.186-20.5 20.5-20.5s20.5 9.186 20.5 20.5z" />
                <path fill="none" stroke="#2A1A43" stroke-width="10" d="M1115 1712.5v20c0 11.314-9.186 20.5-20.5 20.5s-20.5-9.186-20.5-20.5v-20c0-11.314 9.186-20.5 20.5-20.5s20.5 9.186 20.5 20.5z" />
            </g>
            <g style="display: block;">
                <path fill="#61605E" d="M1114 1486.905c0 14.228-11.539 25.78-25.75 25.78h-153c-14.211 0-25.75-11.552-25.75-25.78 0-14.229 11.539-25.78 25.75-25.78h153c14.211 0 25.75 11.551 25.75 25.78z" />
                <path
                    fill="none"
                    stroke="#391F44"
                    stroke-width="10"
                    d="M102.25 0c0 14.211-11.539 25.75-25.75 25.75h-153c-14.211 0-25.75-11.539-25.75-25.75s11.539-25.75 25.75-25.75h153c14.211 0 25.75 11.539 25.75 25.75z"
                    transform="matrix(1 0 0 1.00119 1011.75 1486.905)"
                />
            </g>
            <g clip-path="url(#e)" style="display: block;">
                <g style="display: block;">
                    <path fill="#11CBFF" d="M619.188 1233.263c42.111-13.694 87.42 9.378 101.114 51.49 13.694 42.11-9.378 87.42-51.49 101.114-42.111 13.694-87.42-9.379-101.114-51.49-13.694-42.111 9.379-87.42 51.49-101.114z" />
                    <path
                        fill="none"
                        stroke="#391F44"
                        stroke-width="10.156400000000001"
                        d="M619.188 1233.263c42.111-13.694 87.42 9.378 101.114 51.49 13.694 42.11-9.378 87.42-51.49 101.114-42.111 13.694-87.42-9.379-101.114-51.49-13.694-42.111 9.379-87.42 51.49-101.114z"
                    />
                </g>
                <g style="display: block;">
                    <path fill="#685E6F" d="M634.867 1279.837c17.12-5.566 35.54 3.813 41.106 20.933 5.567 17.12-3.813 35.539-20.932 41.106-17.12 5.567-35.54-3.813-41.106-20.932-5.567-17.12 3.813-35.54 20.932-41.107z" />
                    <path
                        fill="none"
                        stroke="#2A1A43"
                        stroke-width="12.5454"
                        d="M634.867 1279.837c17.12-5.566 35.54 3.813 41.106 20.933 5.567 17.12-3.813 35.539-20.932 41.106-17.12 5.567-35.54-3.813-41.106-20.932-5.567-17.12 3.813-35.54 20.932-41.107z"
                    />
                </g>
                <path fill="#E3E3E3" d="M0-8.5c4.691 0 8.5 3.809 8.5 8.5S4.691 8.5 0 8.5-8.5 4.691-8.5 0-4.691-8.5 0-8.5z" style="display: block;" transform="matrix(.98095 -.31899 .31899 .98095 643.831 1310.688)" />
                <path fill="none" stroke="#391F44" stroke-linecap="round" stroke-width="15" d="M-393.5 600.5s4 72.5 73.5 75" style="display: block;" transform="rotate(-18.013 3044.633 -1856.97) scale(.69063)" />
                <path fill="none" stroke="#391F44" stroke-linecap="round" stroke-width="15" d="M-393.5 600.5s4 72.5 73.5 75" style="display: block;" transform="rotate(169.172 170.278 901.132) scale(.69063)" />
            </g>
            <g clip-path="url(#f)" style="display: block;" transform="matrix(-1 0 0 1 2000 0)">
                <g style="display: block;">
                    <path fill="#11CBFF" d="M619.188 1233.263c42.111-13.694 87.42 9.378 101.114 51.49 13.694 42.11-9.378 87.42-51.49 101.114-42.111 13.694-87.42-9.379-101.114-51.49-13.694-42.111 9.379-87.42 51.49-101.114z" />
                    <path
                        fill="none"
                        stroke="#391F44"
                        stroke-width="10.156400000000001"
                        d="M619.188 1233.263c42.111-13.694 87.42 9.378 101.114 51.49 13.694 42.11-9.378 87.42-51.49 101.114-42.111 13.694-87.42-9.379-101.114-51.49-13.694-42.111 9.379-87.42 51.49-101.114z"
                    />
                </g>
                <g style="display: block;">
                    <path fill="#685E6F" d="M634.867 1279.837c17.12-5.566 35.54 3.813 41.106 20.933 5.567 17.12-3.813 35.539-20.932 41.106-17.12 5.567-35.54-3.813-41.106-20.932-5.567-17.12 3.813-35.54 20.932-41.107z" />
                    <path
                        fill="none"
                        stroke="#2A1A43"
                        stroke-width="12.5454"
                        d="M634.867 1279.837c17.12-5.566 35.54 3.813 41.106 20.933 5.567 17.12-3.813 35.539-20.932 41.106-17.12 5.567-35.54-3.813-41.106-20.932-5.567-17.12 3.813-35.54 20.932-41.107z"
                    />
                </g>
                <path fill="#E3E3E3" d="M0-8.5c4.691 0 8.5 3.809 8.5 8.5S4.691 8.5 0 8.5-8.5 4.691-8.5 0-4.691-8.5 0-8.5z" style="display: block;" transform="matrix(.98095 -.31899 .31899 .98095 643.831 1310.688)" />
                <path fill="none" stroke="#391F44" stroke-linecap="round" stroke-width="15" d="M-393.5 600.5s4 72.5 73.5 75" style="display: block;" transform="rotate(-18.013 3044.633 -1856.97) scale(.69063)" />
                <path fill="none" stroke="#391F44" stroke-linecap="round" stroke-width="15" d="M-393.5 600.5s4 72.5 73.5 75" style="display: block;" transform="rotate(169.172 170.278 901.132) scale(.69063)" />
            </g>
            <path
                fill="#342148"
                d="M41.25 0c0 7.589-6.161 13.75-13.75 13.75h-55c-7.589 0-13.75-6.161-13.75-13.75s6.161-13.75 13.75-13.75h55c7.589 0 13.75 6.161 13.75 13.75z"
                style="display: block;"
                transform="matrix(.99297 -.11855 .17406 1.4614 640.357 1196.447)"
            />
            <path
                fill="#342148"
                d="M7.75-25.5v51A7.754 7.754 0 0 1 0 33.25a7.754 7.754 0 0 1-7.75-7.75v-51A7.754 7.754 0 0 1 0-33.25a7.754 7.754 0 0 1 7.75 7.75z"
                style="display: block;"
                transform="matrix(1.00842 0 0 1.00962 960.25 1320.207)"
            />
            <path
                fill="#342148"
                d="M7.75-25.5v51A7.754 7.754 0 0 1 0 33.25a7.754 7.754 0 0 1-7.75-7.75v-51A7.754 7.754 0 0 1 0-33.25a7.754 7.754 0 0 1 7.75 7.75z"
                style="display: block;"
                transform="matrix(1.08458 0 0 1.08587 1011.75 1320.207)"
            />
            <path
                fill="#342148"
                d="M7.75-25.5v51A7.754 7.754 0 0 1 0 33.25a7.754 7.754 0 0 1-7.75-7.75v-51A7.754 7.754 0 0 1 0-33.25a7.754 7.754 0 0 1 7.75 7.75z"
                style="display: block;"
                transform="matrix(1.00842 0 0 1.00962 1061.75 1320.207)"
            />
            <g style="display: block;">
                <path
                    fill="#FFFEFF"
                    d="m1114.377 1006.981 8.844 67.978c3.23 24.827-14.143 47.586-38.771 50.79l-156.68 20.385c-24.628 3.204-47.246-14.352-50.476-39.18l-8.845-67.977c-3.23-24.827 14.144-47.586 38.772-50.79l156.68-20.385c24.627-3.204 47.246 14.352 50.476 39.18z"
                />
                <path
                    fill="none"
                    stroke="#2A1A42"
                    stroke-width="15"
                    d="M124-34v68c0 24.835-20.164 45-45 45H-79c-24.836 0-45-20.165-45-45v-68c0-24.835 20.164-45 45-45H79c24.836 0 45 20.165 45 45z"
                    transform="matrix(.99164 -.12902 .13006 .99966 995.835 1056.968)"
                />
                <path
                    fill="#B6B3C0"
                    d="M1108.608 1019.804s-13.499 11.54-16.482 31.244c-10.989 55.055-56.979 19.358-56.979 19.358s3.362 27.773-9.826 36.86c-55.34 31.406-142.736-17.773-142.736-17.773s1.943 18.808 3.308 29.304c1.366 10.497 11.348 24.645 22.353 24.54 63.465-8.257 128.223-18.207 192.68-26.593 12.032-1.566 16.146-32.853 16.146-32.853l-8.464-64.087z"
                />
                <path fill="none" stroke="#2A1A42" stroke-width="15" d="M-55-1.5v46S-53 59-39 71s20 19 20 31.5-.5 55.5-.5 55.5" transform="matrix(.99164 -.12902 .13006 .99966 988.324 983.734)" />
                <path fill="#FFFEFF" d="m867.767 1049.232-75.86 9.87s-20.882 13.9-18.086 35.392c2.796 21.493 26.279 27.587 26.279 27.587l76.682-7.435-9.015-65.414z" />
                <path fill="none" stroke="#2A1A43" stroke-width="15" d="M-128 49h-76.5S-227 60-227 81.5s22.5 30.5 22.5 30.5l77 2.5-.5-65.5z" transform="matrix(.99164 -.12902 .13006 .99966 988.324 983.734)" />
                <path fill="#FFFEFF" d="m1202.962 1003.843-86.24 11.474 8.885 64.414 91.23-11.87s21.496-14.995 18.31-39.487c-3.187-24.492-32.185-24.531-32.185-24.531z" />
                <path fill="none" stroke="#2A1A43" stroke-width="15" d="m210.25 47.25-87 .25.5 64.5h92S239 100 239 75.5s-28.75-28.25-28.75-28.25z" transform="matrix(.99164 -.12902 .13006 .99966 988.324 983.734)" />
                <path
                    fill="#BAB0C2"
                    d="M779.67 1087.125c2.284 21.433 15.594 24.91 21.81 27.152 6.216 2.24 67.228-6.46 67.228-6.46s-1.424-9.98-3.115-22.976c-69.626 15.159-61.317 4.42-85.924 2.284zM1226.943 1028.298c-13.865 20.356-97.89 23.664-97.89 23.664s1.573 14.028 2.552 19.618c32.724-4.257 60.905-8.559 82.473-11.365 16.338-13.943 13.964-24.436 12.865-31.917z"
                />
            </g>
            <g style="display: block;">
                <path fill="#22B0FC" d="M1086.158 1045.882c2.127 14.87-8.123 28.66-22.874 30.773-14.75 2.113-28.454-8.245-30.58-23.116-2.128-14.87 8.122-28.66 22.872-30.772 14.751-2.113 28.455 8.245 30.582 23.115z" />
                <path fill="none" stroke="#2A1A42" stroke-width="15" d="M27 0c0 14.901-12.099 27-27 27S-27 14.901-27 0s12.099-27 27-27S27-14.901 27 0z" transform="matrix(.9899 -.1418 .14274 .99793 1059.43 1049.71)" />
                <path fill="#22B0FC" d="M1044.728 1047.998s.011-10.95 13.375-12.864c14.106-2.02 16.561 9.848 16.561 9.848" />
                <path fill="none" stroke="#FFF" stroke-linecap="round" stroke-linejoin="round" stroke-width="5" d="M47.688 70.25S49.25 59.5 62.75 59.5c14.25 0 15 12 15 12" transform="matrix(.9899 -.1418 .14274 .99793 987.494 984.655)" />
            </g>
            <g style="display: block;">
                <path
                    fill="#F2F2F2"
                    d="M923.974 1181.096s-71.699-47.458-154.92-12.988c-83.222 34.47-96.572 89.386-95.757 118.392.815 29.006 23.413 92.151 52.336 104.336-22.172 26.859-12.765 119.92 73.24 119.469 86.004-.452 132.93-112.796 89.21-189.435-21.758-38.14 26.54-84.833 105.552-86.33 79.01-1.495 154.737 40.287 122.455 85.783-35.318 49.776-35.127 176.78 74.794 189.481 115.848 13.386 82.725-113.475 82.725-113.475s52.305-47.667 52.72-112.666c.414-64.999-101.915-170.653-250.345-103.598"
                />
                <path
                    fill="none"
                    stroke="#2A1A43"
                    stroke-width="20"
                    d="M923.974 1181.096s-71.699-47.458-154.92-12.988c-83.222 34.47-96.572 89.386-95.757 118.392.815 29.006 23.413 92.151 52.336 104.336-22.172 26.859-12.765 119.92 73.24 119.469 86.004-.452 132.93-112.796 89.21-189.435-21.758-38.14 26.54-84.833 105.552-86.33 79.01-1.495 154.737 40.287 122.455 85.783-35.318 49.776-35.127 176.78 74.794 189.481 115.848 13.386 82.725-113.475 82.725-113.475s52.305-47.667 52.72-112.666c.414-64.999-101.915-170.653-250.345-103.598"
                />
            </g>
            <g style="display: block;">
                <path
                    fill="#F2F2F2"
                    d="M1386.232 685.17c-135.125 109.496-205.065 37.746-239.753 12.453-34.687-25.293-57.172 31.78-70.306 64.401-13.134 32.621-25.418 78.33 121.699 136.925 194.814 65.39 241.41-100.232 253.952-155.024 12.542-54.79-14.095-78.282-65.592-58.755z"
                />
                <path fill="none" stroke="#2A1A42" stroke-width="20" d="M402-200c-138 105-206 32-240 6s-58 30-72 62S62.5-55 208 7c193 70 244-93 258-147s-12-78-64-60z" transform="matrix(.99964 -.0267 .02691 1.00773 989.757 897.447)" />
                <path
                    fill="#D3D3D3"
                    d="M1435.728 684.353c-23.909-14.993-108.871 43.749-108.871 43.749s6.738 27.552 9.737 27.472c2.999-.08 51.005 36.96 43.167 61.876-7.838 24.916-29.374 61.291-110.615 53.376-81.24-7.915-194.88-86.565-194.88-86.565s-4.527 17.769 29.943 53.657c62.676 43.202 153.747 82.117 210.47 71.022 56.725-11.095 81.841-44.54 98.608-72.217 44.073-72.776 46.35-137.378 22.44-152.37z"
                />
                <path fill="none" stroke="#2A1A42" stroke-linecap="round" stroke-width="20" d="M294-142.5s-57 127.5-1.5 167" transform="matrix(.99964 -.0267 .02691 1.00773 989.757 897.447)" />
            </g>
            <g style="display: block;">
                <path
                    fill="#F2F2F2"
                    d="M587.157 688.052c136.824 107.366 205.632 34.53 239.92 8.697 34.286-25.833 87.554 40.789 101.197 73.2s-44.737 66.548-155.465 131.864c-179.299 78.673-236.917-99.398-250.315-153.986-13.399-54.588 12.867-78.493 64.663-59.775z"
                />
                <path
                    fill="none"
                    stroke="#2A1A42"
                    stroke-width="20"
                    d="M402-200c-138 105-206 32-240 6s-88 39.5-102 71.5S104-56 214 10c178.42 80 238-96 252-150s-12-78-64-60z"
                    transform="matrix(-.99994 -.01104 -.01113 1.00803 986.908 894.095)"
                />
                <path
                    fill="#D3D3D3"
                    d="M537.655 688.01c23.671-15.365 109.543 42.039 109.543 42.039s-6.306 27.655-9.306 27.621c-3-.033-50.42 37.754-42.193 62.544 8.227 24.79 29.914 47.75 111.437 51.638 82.542 3.935 207.462-108.607 207.462-108.607s35.43 13.75-57.146 80.777C784 891.855 719.096 920.88 662.205 910.674c-56.89-10.206-82.528-43.254-99.726-70.663-45.207-72.078-48.495-136.636-24.824-152.001z"
                />
                <path fill="none" stroke="#2A1A42" stroke-linecap="round" stroke-width="20" d="M294-142.5s-55.5 132 0 171.5" transform="matrix(-.99994 -.01104 -.01113 1.00803 986.908 894.095)" />
            </g>
            <g style="display: block;">
                <path fill="#FEFFFD" d="M941.342 221.663c154.021-19.026 294.428 91.42 313.608 246.687 19.18 155.268-90.131 296.56-244.153 315.586-154.021 19.026-294.428-91.42-313.608-246.688-19.18-155.267 90.131-296.56 244.153-315.585z" />
                <path fill="none" stroke="#2F1D47" stroke-width="15" d="M0-281c155.192 0 281 125.808 281 281S155.192 281 0 281-281 155.192-281 0-155.192-281 0-281z" transform="matrix(.99246 -.1226 .12359 1.00049 976.07 502.8)" />
                <path fill="#734C88" d="M954.217 276.954C751.015 295.961 709.646 426.01 709.646 426.01s13.608.7 36.488 1.745c121.98 5.572 507.447 20.93 498.79-7.937-10.28-34.282-105.986-164.665-290.707-142.863z" />
                <path
                    fill="none"
                    stroke="#2F1D47"
                    stroke-width="15"
                    d="M15-600c-204-6-261 117-261 117s13.42 2.345 35.999 6.156C-89.625-456.525 291.052-394.528 286-424c-6-35-85-175-271-176z"
                    transform="matrix(.99246 -.1226 .12359 1.00049 1013.482 879.085)"
                />
                <path
                    fill="#371A46"
                    d="M959.288 309.848c-166.733 20.596-182.256 58.065-251.013 129.535-18.404 95.722-7.026 171.514 71.958 248.096 60.888 44.282 132.948 72.964 239.14 59.846 106.194-13.118 205.095-85.264 222.124-159.486 17.03-74.222 15.734-121.973-18.337-181.078-16.672-28.92-96.147-117.632-263.872-96.913z"
                />
                <path
                    fill="none"
                    stroke="#2F1D47"
                    stroke-width="15"
                    d="M16-567c-168 0-188 35-265 97-30 92-28 168 41 253 55 51 123 88 230 88s214-59 240-130 30.568-118.168 4-180.5C253-470 185-567 16-567z"
                    transform="matrix(.99246 -.1226 .12359 1.00049 1013.482 879.085)"
                />
                <path
                    fill="#9A8EA2"
                    d="M1175.483 479.284c19.365 7.724 26.392 36.158 15.696 63.51-10.696 27.35-35.065 43.26-54.43 35.536-19.364-7.724-26.392-36.158-15.695-63.51 10.696-27.35 35.064-43.26 54.429-35.536zM1132.922 607.951c9.75 5.685 12.355 19.545 5.819 30.957-6.536 11.412-19.738 16.055-29.488 10.37-9.75-5.685-12.354-19.544-5.818-30.956 6.536-11.413 19.738-16.055 29.487-10.37zM964.975 351.807c-64.01-.22-155.636 32.938-191.818 78.545-35.781 45.103-13.17 180.907-1.51 181.499 10.686-39.92 24.915-108.615 53.536-151.866 31.84-48.119 86.752-88.93 139.792-108.178z"
                />
            </g>
            <g style="display: block;">
                <path
                    fill="#D7CADB"
                    d="M1156.304 159.815c-74.271-39.378-153.442-47.85-225.437-38.49-92.125 11.978-172.501 53.156-215.822 96.15-120.977 121.63-113.95 308.68-113.95 308.68s26.914 22.063 42.797 3.845c-1.454-150.156 70.766-250.515 107.244-281.44 131.021-105.604 260.898-90.19 373.029-47.184 133.588 61.682 176.842 232.059 176.842 232.059s38.798 126.234 43.293-.28c-21.306-131.446-107.002-229.528-187.996-273.34z"
                />
                <path
                    fill="none"
                    stroke="#2F1D47"
                    stroke-width="30"
                    d="M230-719c-68.872-47.815-146.402-65.803-219.002-65.36-92.899.567-177.724 31.312-225.998 68.36-135 105-151 290-151 290s24 25 42 9c17-148 101-238 141-264 143-88 270-57 376-1 125 77 147 250 147 250s23 129 43 5c-5-132-78-239-153-292z"
                    transform="matrix(.99243 -.12283 .12382 1.00046 1017.07 907.394)"
                />
                <path
                    fill="#0A93C7"
                    d="M931.355 88.617c-112.144 13.88-183.67 58.792-210.658 93.114-7.911 10.06-6.769 34.866 11.091 48.908 17.86 14.042 28.034 6.689 33.431 1.45 56.328-37.445 103.162-62.034 172.632-70.632 69.47-8.598 114.063 5.69 170.19 27.694 16.56 7.6 26.362-2.755 30.52-13.935 4.158-11.18 12.274-40.509-.361-47.697-12.466-7.091-94.7-52.782-206.845-38.902z"
                />
                <path
                    fill="none"
                    stroke="#2F1D47"
                    stroke-width="14"
                    d="M15.5-816.5c-113 0-189.5 35.5-220.5 66-9.087 8.94-11 33.5 5 49.5s27 10 33 5.5c60.5-30 110-48.5 180-48.5s112.5 19.5 165.5 48c15.5 9.5 26.5.5 32-10s17.157-38.384 5.5-47c-11.5-8.5-87.5-63.5-200.5-63.5z"
                    transform="matrix(.99243 -.12283 .12382 1.00046 1017.07 907.394)"
                />
            </g>
            <g style="display: block;">
                <path
                    fill="#0ECDFF"
                    d="m653.696 511.518 16.84 136.062c2.938 23.743-13.799 45.387-37.351 48.302-23.552 2.915-45.06-13.996-47.999-37.738L568.347 522.08c-2.938-23.742 13.798-45.386 37.35-48.3 23.552-2.916 45.06 13.995 47.999 37.737z"
                />
                <path fill="none" stroke="#2F1D47" stroke-width="15" d="M43-68V68c0 23.732-19.268 43-43 43s-43-19.268-43-43V-68c0-23.732 19.268-43 43-43s43 19.268 43 43z" transform="matrix(.99243 -.12283 .12382 1.00046 619.441 584.83)" />
                <path
                    fill="#CBCCCD"
                    d="m718.211 471.028 24.764 200.092c3.212 25.951-15.082 49.608-40.825 52.794-25.743 3.186-49.252-15.297-52.463-41.248l-24.764-200.092c-3.212-25.95 15.082-49.608 40.825-52.794 25.743-3.186 49.251 15.297 52.463 41.248z"
                />
                <path fill="none" stroke="#2F1D47" stroke-width="15" d="M47-100v200c0 25.94-21.06 47-47 47s-47-21.06-47-47v-200c0-25.94 21.06-47 47-47s47 21.06 47 47z" transform="matrix(.99243 -.12283 .12382 1.00046 683.949 576.847)" />
                <path fill="#208BBA" d="M632.71 606.552c-20.411 18.27-44.675 4.386-44.675 4.386s4.426 36.782 6.345 52.29c1.92 15.506 11.71 24.72 23.021 25.211 7.598.33 11.986 1.183 24.966-1.82-3.653-29.513-4.891-37.486-9.658-80.067z" />
                <path
                    fill="none"
                    stroke="#2F1D47"
                    stroke-width="10"
                    d="M-344.5-343c-22.5 15.5-44.875-1.125-44.875-1.125s-.125 36.75-.125 52.25 8.584 25.764 19.75 27.625c7.5 1.25 11.75 2.625 25 1.25 0-29.5-.25-37.5.25-80z"
                    transform="matrix(.99243 -.12283 .12382 1.00046 1017.07 907.394)"
                />
                <path fill="#9E8C9A" d="M725.811 595.537c-41.19 25.413-77.038 16.645-77.038 16.645s7.242 62.59 8.728 74.596c1.114 9.004 15.467 33.384 44.248 29.822 33.774-5.958 34.649-35.524 34.649-35.524s-2.787-18.447-10.587-85.54z" />
            </g>
            <g style="display: block;">
                <path
                    fill="#0ECDFF"
                    d="m1294.804 432.17 16.84 136.063c2.938 23.743 24.446 40.653 47.998 37.738 23.552-2.915 40.289-24.559 37.35-48.301l-16.839-136.062c-2.938-23.743-24.446-40.653-47.998-37.738-23.552 2.915-40.29 24.558-37.35 48.3z"
                />
                <path fill="none" stroke="#2F1D47" stroke-width="15" d="M43-68V68c0 23.732-19.268 43-43 43s-43-19.268-43-43V-68c0-23.732 19.268-43 43-43s43 19.268 43 43z" transform="matrix(-.99243 .12283 .12382 1.00046 1345.898 494.92)" />
                <path
                    fill="#CBCCCD"
                    d="m1222.365 408.631 24.763 200.092c3.212 25.951 26.721 44.435 52.464 41.248 25.743-3.186 44.036-26.843 40.825-52.794l-24.764-200.091c-3.212-25.952-26.72-44.435-52.464-41.249-25.743 3.186-44.036 26.843-40.824 52.794z"
                />
                <path fill="none" stroke="#2F1D47" stroke-width="15" d="M47-100v200c0 25.94-21.06 47-47 47s-47-21.06-47-47v-200c0-25.94 21.06-47 47-47s47 21.06 47 47z" transform="matrix(-.99243 .12283 .12382 1.00046 1281.39 502.904)" />
                <path
                    fill="#208BBA"
                    d="M1338.326 519.22c24.249 12.744 44.396-6.637 44.396-6.637s4.674 36.752 6.593 52.259c1.92 15.507-5.329 26.83-16.18 30.063-7.288 2.172-11.336 4.07-24.656 4.321-3.652-29.513-4.395-37.547-10.153-80.005z"
                />
                <path
                    fill="none"
                    stroke="#2F1D47"
                    stroke-width="10"
                    d="M-344.5-343c-22.5 15.5-44.875-1.125-44.875-1.125s-.125 36.75-.125 52.25 8.584 25.764 19.75 27.625c7.5 1.25 11.75 2.625 25 1.25 0-29.5-.25-37.5.25-80z"
                    transform="matrix(-.99243 .12283 .12382 1.00046 1038.904 904.692)"
                />
                <path fill="#9E8C9A" d="M1245.348 531.236c46.143 14.605 78.772-2.639 78.772-2.639s8.235 62.467 9.72 74.473c1.115 9.004-6.862 36.147-35.642 39.71-34.207 2.456-42.264-26.005-42.264-26.005s-1.794-18.57-10.586-85.539z" />
            </g>
            <g style="display: block;">
                <path
                    fill="#F2F2F2"
                    d="M1347.46 742.076c-30.026 15.83-168.341-99.617-57.776-167.227-40.065-81.347-56.255-118.02-27.482-131.611 28.773-13.592 77.113 102.875 80.293 112.287-.138-11.426 3.168-132.9 54.947-129.207 34.216 2.441 2.875 124.877 2.875 124.877s15.25-4.717 30.29 11.67c15.042 16.386 2.655 26.249 2.655 26.249s19.034.897 26.514 15.706c7.479 14.808 9.02 54.722-24.502 107.09"
                />
                <path
                    fill="none"
                    stroke="#2A1A42"
                    stroke-linecap="round"
                    stroke-linejoin="round"
                    stroke-width="20"
                    d="M344-142c-31.5-12.5-35-192 88-152 35-83 52-119 81-106s-27 125-32 133.5c8.5-7.5 101.977-83.616 133-42 20.5 27.5-92 83-92 83s13.5 8.5 11 30.5-18 19-18 19 11.75 15 5.5 30.25S485.25-103.5 424-95"
                    transform="matrix(.65245 -.76368 .75784 .65805 1230.629 1098.224)"
                />
                <path
                    fill="none"
                    stroke="#2A1A42"
                    stroke-linecap="round"
                    stroke-width="20"
                    d="M429-295.5s47.5 72 20.5 100-42.375-34.125-45-34-27 49-38.5 56M525-223.5s-39-8.5-63-5.5M512.875-171.25s-52.75-2.5-64.625-12.875M506-132.5s-52 11.5-78-21c-13-15 10.5-28 10.5-28"
                    transform="matrix(.65245 -.76368 .75784 .65805 1230.629 1098.224)"
                />
            </g>
            <g style="display: block;">
                <path
                    fill="#F2F2F2"
                    d="M626.506 759.63c32.876 8.289 140.452-136.629 17.22-176.206 20.004-88.543 27.203-128.017-3.934-134.426-31.137-6.409-51.006 118.228-51.905 128.128-2.527-11.14-34.031-128.432-83.508-112.6-32.694 10.462 26.288 122.061 26.288 122.061s-15.924-.978-26.73 18.505c-10.806 19.484 3.533 26.143 3.533 26.143s-18.295 5.372-22.117 21.534c-3.822 16.162 3.976 55.323 48.76 98.301"
                />
                <path
                    fill="none"
                    stroke="#2A1A42"
                    stroke-linecap="round"
                    stroke-linejoin="round"
                    stroke-width="20"
                    d="M344-142c-31.5-12.5-35-192 88-152 35-83 52-119 81-106s-27 125-32 133.5c8.5-7.5 101.977-83.616 133-42 20.5 27.5-92 83-92 83s13.5 8.5 11 30.5-18 19-18 19 11.75 15 5.5 30.25S485.25-103.5 424-95"
                    transform="matrix(-.81213 -.58805 -.58347 .8188 823.027 1078.19)"
                />
                <path
                    fill="none"
                    stroke="#2A1A42"
                    stroke-linecap="round"
                    stroke-width="20"
                    d="M429-295.5s47.5 72 20.5 100-42.375-34.125-45-34-27 49-38.5 56M525-223.5s-39-8.5-63-5.5M512.875-171.25s-52.75-2.5-64.625-12.875M506-132.5s-52 11.5-78-21c-13-15 10.5-28 10.5-28"
                    transform="matrix(-.81213 -.58805 -.58347 .8188 823.027 1078.19)"
                />
            </g>
        </g>
    </g>
</svg>
